PathFileType	4	(X/Y/Z)	C:/Users/beibeiliu/ov580/test_trc/User2\sequence.5_training_dense_left.trc
DataRate	CameraRate	NumFrames	NumMarkers	Units	OrigDataRate	OrigDataStartFrame	OrigNumFrames
120	120	11	19	mm	120	1	72
Frame#	Time	ThumbCMC			ThumbMCP			ThumbIP			ThumbTip			IndexMCP			IndexPIP			IndexTip			MiddleMCP			MiddlePIP			MiddleTip			RingMCP			RingPIP			RingTip			PinkyMCP			PinkyPIP			PinkyTip			BackHand1			BackHand2			BackHand3	
		X0	Y0	Z0	X1	Y1	Z1	X2	Y2	Z2	X3	Y3	Z3	X4	Y4	Z4	X5	Y5	Z5	X6	Y6	Z6	X7	Y7	Z7	X8	Y8	Z8	X9	Y9	Z9	X10	Y10	Z10	X11	Y11	Z11	X12	Y12	Z12	X13	Y13	Z13	X14	Y14	Z14	X15	Y15	Z15	X16	Y16	Z16	X17	Y17	Z17	X18	Y18	Z18	
0	0	-138.735	-49.0411	-7.639	-123.006	-63.3503	-34.1595	-109.024	-73.1192	-66.234	-108.208	-81.5249	-94.6173	-158.517	-9.57364	-79.2529	-152.501	-2.01976	-105.199	-149.78	7.46251	-136.653	-182.931	-17.4473	-93.4409	-182.883	-36.3553	-126.054	-179.638	-75.6027	-127.585	-202.098	-27.5233	-92.7977	-200.081	-46.1701	-115.888	-191.077	-80.5039	-106.436	-223.903	-40.5004	-78.885	-217.459	-59.1589	-102.195	-200.404	-86.7475	-94.1456	-207.001	-21.614	-30.9749	-207.585	-26.4286	7.18051	-172.746	-18.3713	-12.5841	
1	0.00833333	-143.255	-46.3643	-11.7082	-128.174	-59.7692	-41.3752	-127.22	-68.651	-74.0272	-131.755	-76.3967	-103.162	-163.096	-2.43113	-78.9265	-159.914	8.39222	-106.466	-159.103	18.1327	-134.306	-182.735	-17.2105	-96.6725	-179.663	-39.213	-121.93	-174.109	-79.3802	-109.468	-206.334	-31.8833	-93.5115	-194.988	-55.6903	-111.126	-183.865	-84.9766	-84.9177	-221.456	-44.4985	-78.0562	-208.921	-73.6394	-97.4995	-195.462	-90.8271	-76.9669	-212.011	-22.5855	-28.5397	-210.05	-25.015	4.32632	-175.292	-15.8757	-13.711	
2	0.0166667	-147.582	-41.5236	-11.7124	-135.223	-54.8803	-42.4735	-135.604	-63.4934	-82.6577	-147.274	-70.4045	-102.121	-166.068	8.1356	-80.6188	-169.186	16.4079	-102.707	-166.332	29.0187	-127.375	-189.482	-15.5627	-94.2993	-180.092	-42.5548	-118.097	-169.086	-75.3614	-99.003	-203.962	-32.3156	-92.0965	-191.29	-63.5508	-103.944	-181.782	-80.5459	-73.7946	-223.164	-48.7327	-81.9215	-204.724	-77.7906	-89.5935	-190.847	-83.4992	-62.6657	-218.126	-19.9806	-30.0782	-214.35	-25.4577	3.05701	-182.871	-12.6618	-10.964	
3	0.025	-150.721	-31.6736	-17.6767	-141.419	-47.9109	-46.1379	-140.122	-59.4122	-80.6525	-151.527	-68.8625	-101.794	-179.839	10.8283	-82.3204	-178.874	23.2212	-107.448	-185.527	28.5126	-129.563	-194.183	-16.1327	-94.6805	-181.265	-47.3623	-115.642	-169.069	-73.8708	-89.947	-206.4	-38.0931	-95.1704	-190.614	-66.8794	-100.144	-176.914	-76.5882	-71.9367	-220.721	-52.5245	-80.2281	-196.903	-77.8096	-84.5921	-184.691	-80.2834	-54.668	-223.435	-20.6761	-35.4177	-225.155	-26.0445	-0.131285	-190.64	-6.82542	-15.4624	
4	0.0333333	-160.325	-22.6255	-14.3213	-142.613	-37.7512	-46.7979	-134.568	-52.3776	-77.447	-147.563	-66.7984	-100.909	-190.332	10.301	-84.0321	-194.127	15.6492	-109.479	-197.142	21.267	-136.972	-196.514	-21.8421	-102.424	-174.922	-50.777	-112.365	-159.797	-69.1783	-86.2086	-208.61	-49.719	-93.8079	-180.943	-70.5418	-95.4347	-170.014	-74.0854	-61.6308	-217.569	-67.5387	-80.9955	-188.003	-79.3603	-78.9116	-177.263	-75.9301	-47.524	-231.175	-26.274	-37.8424	-227.53	-25.4992	-3.775	-201.75	-5.56999	-19.2439	
5	0.0416667	-165.188	-10.87	-18.8655	-142.463	-25.2522	-42.8173	-131.441	-42.9075	-74.0351	-136.324	-62.6553	-93.7069	-196.283	2.00128	-90.102	-200.197	-4.28467	-121.466	-198.032	-5.63886	-146.175	-195.888	-33.5887	-101.337	-167.278	-53.0232	-109.77	-149.603	-66.2677	-77.3118	-199.3	-59.145	-91.5705	-168.682	-74.643	-88.5857	-157.682	-72.2902	-57.5447	-204.365	-74.051	-77.5983	-174.176	-81.1895	-72.5879	-168.504	-72.2259	-40.9709	-228.976	-33.3059	-36.6129	-230.969	-32.4754	-4.25322	-207.342	-3.44233	-21.9782	
6	0.05	-164.435	-5.12812	-18.9099	-138.199	-20.6638	-41.5028	-125.106	-39.9239	-64.1871	-127.824	-60.6629	-84.4677	-192.069	-12.3213	-98.3146	-185.135	-16.8428	-120.539	-179.787	-29.8223	-145.532	-189.428	-40.3304	-100.859	-160.044	-55.0097	-106.953	-138.571	-63.4648	-71.0899	-190.51	-58.8354	-88.6535	-160.616	-74.5368	-85.9015	-147.357	-66.1913	-50.2726	-194.986	-80.5824	-73.7205	-161.516	-82.7147	-62.8298	-160.684	-69.6437	-35.1016	-223.72	-37.8277	-37.3255	-230.862	-35.6739	-4.11815	-211.824	-6.31209	-23.4698	
7	0.0583333	-164.561	-3.56582	-14.0131	-136.812	-19.603	-36.6905	-119.462	-38.3888	-66.3933	-120.194	-60.5437	-83.9543	-185.391	-14.734	-98.3378	-172.779	-23.9215	-123.53	-165.533	-37.6009	-142.14	-184.044	-41.079	-99.9809	-154.607	-57.6569	-103.701	-132.632	-59.5677	-66.6614	-184.852	-61.3277	-88.4289	-155.854	-77.6581	-82.2258	-144.425	-69.429	-50.3202	-187.9	-82.6527	-73.7789	-158.424	-83.2648	-62.741	-157.81	-67.0277	-31.0742	-224.52	-44.3572	-37.7398	-229.505	-37.1376	-6.85046	-210.374	-4.64451	-25.6744	
8	0.0666667	-163.479	-3.9033	-15.6222	-136.411	-19.5985	-37.2625	-120.336	-37.3881	-61.2662	-120.379	-60.0654	-82.0447	-182.703	-12.1431	-95.7209	-169.548	-21.9171	-123.446	-156.36	-30.6762	-146.594	-182.845	-38.7425	-97.1943	-149.007	-59.9267	-100.258	-130.803	-60.8335	-66.6302	-180.689	-63.6706	-88.0139	-151.604	-76.1955	-81.5419	-139.59	-64.2034	-47.6241	-187.93	-82.0026	-70.1072	-154.975	-82.4682	-62.0403	-152.414	-66.9682	-30.8849	-220.337	-42.8739	-39.212	-227.902	-38.1282	-3.75006	-208.367	-7.37882	-24.2515	
9	0.075	-166.876	-1.92976	-13.9855	-133.309	-13.4333	-36.3291	-114.254	-29.4469	-58.9729	-115.309	-54.3192	-75.5114	-184.993	-7.62297	-96.6015	-178.104	-14.7062	-120.29	-168.986	-20.7613	-147.672	-179.389	-37.5816	-98.8436	-145.957	-52.6867	-102.209	-127.332	-56.1106	-68.2919	-175.735	-60.141	-88.5003	-148.255	-74.3341	-81.9068	-135.572	-62.4755	-48.3532	-183.719	-76.9305	-69.1504	-149.159	-79.1641	-58.7301	-148.603	-61.9012	-32.5968	-220.761	-46.2909	-38.6083	-227.649	-38.9187	-8.15708	-209.946	-6.35069	-24.2279	
10	0.0833333	-169.481	3.06588	-17.6707	-137.197	-8.57628	-35.4699	-115.119	-25.5054	-58.5502	-110.697	-49.5582	-76.6546	-192.679	-8.95669	-96.9352	-188.021	-8.81415	-122.317	-185.012	-15.2492	-152	-178.427	-39.7104	-99.788	-145.858	-49.919	-102.27	-125.81	-53.3198	-68.0348	-175.229	-65.4181	-84.5346	-143.753	-69.9484	-80.7582	-130.277	-55.4033	-47.3034	-178.48	-77.0663	-67.4799	-144.073	-74.4162	-58.6616	-144.761	-56.1449	-32.9361	-219.316	-48.8858	-38.0279	-225.806	-41.2381	-9.02325	-214.471	-9.55422	-26.6498	
